<svg class="diagram-root" style="background: #f5f6f6" xmlns="http://www.w3.org/2000/svg" xmlns:xlink="http://www.w3.org/1999/xlink"><style>.diagram-root { font-family: "Helvetica Neue", sans-serif; font-size: 12px; } .t { overflow: visible; } .t-bg { y: 40; fill: #fff;   } .th { fill: #005aa0;   } .tht { fill: #fff; font-size: 14px;  } .tf { fill: #323c46; overflow: visible; } .tf.pk { fill: #005aa0; font-weight: bold; } .tf.fk { font-weight: bold; } .ty { fill: #adb1b5; font-weight: normal; text-anchor: end; } .r { fill: transparent; stroke: #c3c3c3; stroke-width: 1; } .l { stroke: 1; } .i { fill: #c2c7ce; stroke: #c2c7ce; } .i.ix { fill: #afb3b6; stroke: #000; } .fa { fill: transparent; overflow: visible; } .fa .bg.hover { fill: #f7f7f7; } .c { cy: 12; r: 4; stroke: #d2d2dc; fill: #d2d2dc; } .hr { fill: transparent; stroke: #323c46; stroke-opacity: 0.035; stroke-width: 13; } .dc { stroke: #fa5a3c; fill: #fa5a3c; } .x { stroke: white; stroke-width: 1; } .hl .th { fill: #1b9bff; } .hl .tht {  } .fhl .bg { fill: #e7f4ff; } .fhls .bg {  } .r.hl { stroke: #1b9bff; } .dim { opacity: 0.25; }</style><g class="drawing-wrapper" transform="translate(-83.52454545454518, 191.95999999999995) scale(1,1)"><g class="rs"><path d="M 386.43 220.76 m -1, 0 a 1,1 0 1,0 2,0 a 1,1 0 1,0 -2,0 M 386.43 220.76 m -0.5, 0 a 0.5,0.5 0 1,0 1,0 a 0.5,0.5 0 1,0 -1,0  M386.43 220.76 L386.43 220.76 374.43 220.76 M 386.43 226.76 m -1, 0 a 1,1 0 1,0 2,0 a 1,1 0 1,0 -2,0 M 386.43 226.76 m -0.5, 0 a 0.5,0.5 0 1,0 1,0 a 0.5,0.5 0 1,0 -1,0  M386.43 226.76 L386.43 226.76 379.43 220.76 386.43 214.76 M 386.43 214.76 m -1, 0 a 1,1 0 1,0 2,0 a 1,1 0 1,0 -2,0 M 386.43 214.76 m -0.5, 0 a 0.5,0.5 0 1,0 1,0 a 0.5,0.5 0 1,0 -1,0  M374.43 220.76 Q 340.72 220.76, 307 223.55 T 239.56 226.34 M 227.56 226.34 m -1, 0 a 1,1 0 1,0 2,0 a 1,1 0 1,0 -2,0 M 227.56 226.34 m -0.5, 0 a 0.5,0.5 0 1,0 1,0 a 0.5,0.5 0 1,0 -1,0  M227.56 226.34 L227.56 226.34 239.56 226.34 M233.56 232.34 L233.56 232.34 233.56 220.34" id="h2543177687" class="r"></path><path d="M 386.43 245.76 m -1, 0 a 1,1 0 1,0 2,0 a 1,1 0 1,0 -2,0 M 386.43 245.76 m -0.5, 0 a 0.5,0.5 0 1,0 1,0 a 0.5,0.5 0 1,0 -1,0  M386.43 245.76 L386.43 245.76 374.43 245.76 M 386.43 251.76 m -1, 0 a 1,1 0 1,0 2,0 a 1,1 0 1,0 -2,0 M 386.43 251.76 m -0.5, 0 a 0.5,0.5 0 1,0 1,0 a 0.5,0.5 0 1,0 -1,0  M386.43 251.76 L386.43 251.76 379.43 245.76 386.43 239.76 M 386.43 239.76 m -1, 0 a 1,1 0 1,0 2,0 a 1,1 0 1,0 -2,0 M 386.43 239.76 m -0.5, 0 a 0.5,0.5 0 1,0 1,0 a 0.5,0.5 0 1,0 -1,0  M374.43 245.76 Q 354.37 245.76, 334.3 298.52 T 294.16 351.27 M 282.16 351.27 m -1, 0 a 1,1 0 1,0 2,0 a 1,1 0 1,0 -2,0 M 282.16 351.27 m -0.5, 0 a 0.5,0.5 0 1,0 1,0 a 0.5,0.5 0 1,0 -1,0  M282.16 351.27 L282.16 351.27 294.16 351.27 M288.16 357.27 L288.16 357.27 288.16 345.27" id="h1537058300" class="r"></path><path d="M 168.56 48.05 m -1, 0 a 1,1 0 1,0 2,0 a 1,1 0 1,0 -2,0 M 168.56 48.05 m -0.5, 0 a 0.5,0.5 0 1,0 1,0 a 0.5,0.5 0 1,0 -1,0  M168.56 48.05 L168.56 48.05 156.56 48.05 M 168.56 54.05 m -1, 0 a 1,1 0 1,0 2,0 a 1,1 0 1,0 -2,0 M 168.56 54.05 m -0.5, 0 a 0.5,0.5 0 1,0 1,0 a 0.5,0.5 0 1,0 -1,0  M168.56 54.05 L168.56 54.05 161.56 48.05 168.56 42.05 M 168.56 42.05 m -1, 0 a 1,1 0 1,0 2,0 a 1,1 0 1,0 -2,0 M 168.56 42.05 m -0.5, 0 a 0.5,0.5 0 1,0 1,0 a 0.5,0.5 0 1,0 -1,0  M156.56 48.05 C 106.56 48.05, -24.162000000000035 220.76, 374.43 220.76 M 386.43 220.76 m -1, 0 a 1,1 0 1,0 2,0 a 1,1 0 1,0 -2,0 M 386.43 220.76 m -0.5, 0 a 0.5,0.5 0 1,0 1,0 a 0.5,0.5 0 1,0 -1,0  M386.43 220.76 L386.43 220.76 374.43 220.76 M380.43 226.76 L380.43 226.76 380.43 214.76" id="h1139284389" class="r"></path><path d="M 168.56 73.05 m -1, 0 a 1,1 0 1,0 2,0 a 1,1 0 1,0 -2,0 M 168.56 73.05 m -0.5, 0 a 0.5,0.5 0 1,0 1,0 a 0.5,0.5 0 1,0 -1,0  M168.56 73.05 L168.56 73.05 156.56 73.05 M 168.56 79.05 m -1, 0 a 1,1 0 1,0 2,0 a 1,1 0 1,0 -2,0 M 168.56 79.05 m -0.5, 0 a 0.5,0.5 0 1,0 1,0 a 0.5,0.5 0 1,0 -1,0  M168.56 79.05 L168.56 79.05 161.56 73.05 168.56 67.05 M 168.56 67.05 m -1, 0 a 1,1 0 1,0 2,0 a 1,1 0 1,0 -2,0 M 168.56 67.05 m -0.5, 0 a 0.5,0.5 0 1,0 1,0 a 0.5,0.5 0 1,0 -1,0  M156.56 73.05 C 106.56 73.05, -2.376000000000033 -104.96000000000001, 338.12 -104.96000000000001 M 350.12 -104.96000000000001 m -1, 0 a 1,1 0 1,0 2,0 a 1,1 0 1,0 -2,0 M 350.12 -104.96000000000001 m -0.5, 0 a 0.5,0.5 0 1,0 1,0 a 0.5,0.5 0 1,0 -1,0  M350.12 -104.96000000000001 L350.12 -104.96000000000001 338.12 -104.96000000000001 M344.12 -98.96000000000001 L344.12 -98.96000000000001 344.12 -110.96000000000001" id="h1607168654" class="r"></path><path d="M 496.44 20.490000000000002 m -1, 0 a 1,1 0 1,0 2,0 a 1,1 0 1,0 -2,0 M 496.44 20.490000000000002 m -0.5, 0 a 0.5,0.5 0 1,0 1,0 a 0.5,0.5 0 1,0 -1,0  M496.44 20.490000000000002 L496.44 20.490000000000002 484.44 20.490000000000002 M 496.44 26.490000000000002 m -1, 0 a 1,1 0 1,0 2,0 a 1,1 0 1,0 -2,0 M 496.44 26.490000000000002 m -0.5, 0 a 0.5,0.5 0 1,0 1,0 a 0.5,0.5 0 1,0 -1,0  M496.44 26.490000000000002 L496.44 26.490000000000002 489.44 20.490000000000002 496.44 14.490000000000002 M 496.44 14.490000000000002 m -1, 0 a 1,1 0 1,0 2,0 a 1,1 0 1,0 -2,0 M 496.44 14.490000000000002 m -0.5, 0 a 0.5,0.5 0 1,0 1,0 a 0.5,0.5 0 1,0 -1,0  M484.44 20.490000000000002 C 200.328 20.490000000000002, 288.12 -104.96000000000001, 338.12 -104.96000000000001 M 350.12 -104.96000000000001 m -1, 0 a 1,1 0 1,0 2,0 a 1,1 0 1,0 -2,0 M 350.12 -104.96000000000001 m -0.5, 0 a 0.5,0.5 0 1,0 1,0 a 0.5,0.5 0 1,0 -1,0  M350.12 -104.96000000000001 L350.12 -104.96000000000001 338.12 -104.96000000000001 M344.12 -98.96000000000001 L344.12 -98.96000000000001 344.12 -110.96000000000001" id="h1397587031" class="r"></path><path d="M 635.16 45.49 m -1, 0 a 1,1 0 1,0 2,0 a 1,1 0 1,0 -2,0 M 635.16 45.49 m -0.5, 0 a 0.5,0.5 0 1,0 1,0 a 0.5,0.5 0 1,0 -1,0  M635.16 45.49 L635.16 45.49 647.16 45.49 M 635.16 51.49 m -1, 0 a 1,1 0 1,0 2,0 a 1,1 0 1,0 -2,0 M 635.16 51.49 m -0.5, 0 a 0.5,0.5 0 1,0 1,0 a 0.5,0.5 0 1,0 -1,0  M635.16 51.49 L635.16 51.49 642.16 45.49 635.16 39.49 M 635.16 39.49 m -1, 0 a 1,1 0 1,0 2,0 a 1,1 0 1,0 -2,0 M 635.16 39.49 m -0.5, 0 a 0.5,0.5 0 1,0 1,0 a 0.5,0.5 0 1,0 -1,0  M647.16 45.49 C 697.16 45.49, 762.3679999999999 220.76, 538.48 220.76 M 526.48 220.76 m -1, 0 a 1,1 0 1,0 2,0 a 1,1 0 1,0 -2,0 M 526.48 220.76 m -0.5, 0 a 0.5,0.5 0 1,0 1,0 a 0.5,0.5 0 1,0 -1,0  M526.48 220.76 L526.48 220.76 538.48 220.76 M532.48 226.76 L532.48 226.76 532.48 214.76" id="h2286254435" class="r"></path></g><g class="hrs"></g><g class="ts"><svg width="138.72" height="100" x="350.12" y="-161.96" id="h475896179" class="t"><rect height="40" width="138.72" class="th"></rect><text x="13" y="25" class="tht">departments</text><rect height="60" width="138.72" class="t-bg" y="40"></rect><text x="13" y="61" class="tf pk">dept_no<tspan x="125.72" class="ty">string</tspan></text><path d="M7,14A2,2 0 0,1 5,12A2,2 0 0,1 7,10A2,2 0 0,1 9,12A2,2 0 0,1 7,14M12.65,10C11.83,7.67 9.61,6 7, 6A6, 6 0 0, 0 1, 12A6, 6 0 0, 0 7, 18C9.61, 18 11.83, 16.33 12.65, 14H17V18H21V14H23V10H12.65Z" class="i pk" transform="translate(76.37625, 48) scale(0.65)"></path><text x="13" y="86" class="tf">dept_name<tspan x="125.72" class="ty">string</tspan></text></svg><svg width="140.05" height="225" x="386.43" y="163.76" id="h1639608377" class="t"><rect height="40" width="140.05" class="th"></rect><text x="13" y="25" class="tht">employees</text><rect height="185" width="140.05" class="t-bg" y="40"></rect><text x="13" y="61" class="tf pk">emp_no<tspan x="127.05000000000001" class="ty">int</tspan></text><path d="M7,14A2,2 0 0,1 5,12A2,2 0 0,1 7,10A2,2 0 0,1 9,12A2,2 0 0,1 7,14M12.65,10C11.83,7.67 9.61,6 7, 6A6, 6 0 0, 0 1, 12A6, 6 0 0, 0 7, 18C9.61, 18 11.83, 16.33 12.65, 14H17V18H21V14H23V10H12.65Z" class="i pk" transform="translate(94.37617187500001, 48) scale(0.65)"></path><text x="13" y="86" class="tf fk">emp_title_id<tspan x="127.05000000000001" class="ty">string</tspan></text><text x="13" y="111" class="tf">birth_date<tspan x="127.05000000000001" class="ty">date</tspan></text><text x="13" y="136" class="tf">first_name<tspan x="127.05000000000001" class="ty">string</tspan></text><text x="13" y="161" class="tf">last_name<tspan x="127.05000000000001" class="ty">string</tspan></text><text x="13" y="186" class="tf">sex<tspan x="127.05000000000001" class="ty">string</tspan></text><text x="13" y="211" class="tf">hire_date<tspan x="127.05000000000001" class="ty">date</tspan></text></svg><svg width="122.04" height="100" x="105.52" y="169.34" id="h2472833127" class="t"><rect height="40" width="122.04" class="th"></rect><text x="13" y="25" class="tht">salaries</text><rect height="60" width="122.04" class="t-bg" y="40"></rect><text x="13" y="61" class="tf pk">emp_no<tspan x="109.04" class="ty">int</tspan></text><path d="M7,14A2,2 0 0,1 5,12A2,2 0 0,1 7,10A2,2 0 0,1 9,12A2,2 0 0,1 7,14M12.65,10C11.83,7.67 9.61,6 7, 6A6, 6 0 0, 0 1, 12A6, 6 0 0, 0 7, 18C9.61, 18 11.83, 16.33 12.65, 14H17V18H21V14H23V10H12.65Z" class="i pk" transform="translate(76.366171875, 48) scale(0.65)"></path><text x="13" y="86" class="tf">salary<tspan x="109.04" class="ty">int</tspan></text></svg><svg width="130.03" height="100" x="152.13" y="294.27" id="h311790747" class="t"><rect height="40" width="130.03" class="th"></rect><text x="13" y="25" class="tht">titles</text><rect height="60" width="130.03" class="t-bg" y="40"></rect><text x="13" y="61" class="tf pk">title_id<tspan x="117.03" class="ty">string</tspan></text><path d="M7,14A2,2 0 0,1 5,12A2,2 0 0,1 7,10A2,2 0 0,1 9,12A2,2 0 0,1 7,14M12.65,10C11.83,7.67 9.61,6 7, 6A6, 6 0 0, 0 1, 12A6, 6 0 0, 0 7, 18C9.61, 18 11.83, 16.33 12.65, 14H17V18H21V14H23V10H12.65Z" class="i pk" transform="translate(67.68625, 48) scale(0.65)"></path><text x="13" y="86" class="tf">title<tspan x="117.03" class="ty">string</tspan></text></svg><svg width="138.72" height="100" x="168.56" y="-8.95" id="h1090417462" class="t"><rect height="40" width="138.72" class="th"></rect><text x="13" y="25" class="tht">dept_emp</text><rect height="60" width="138.72" class="t-bg" y="40"></rect><text x="13" y="61" class="tf pk">emp_no<tspan x="125.72" class="ty">int</tspan></text><path d="M7,14A2,2 0 0,1 5,12A2,2 0 0,1 7,10A2,2 0 0,1 9,12A2,2 0 0,1 7,14M12.65,10C11.83,7.67 9.61,6 7, 6A6, 6 0 0, 0 1, 12A6, 6 0 0, 0 7, 18C9.61, 18 11.83, 16.33 12.65, 14H17V18H21V14H23V10H12.65Z" class="i pk" transform="translate(93.046171875, 48) scale(0.65)"></path><text x="13" y="86" class="tf pk">dept_no<tspan x="125.72" class="ty">string</tspan></text><path d="M7,14A2,2 0 0,1 5,12A2,2 0 0,1 7,10A2,2 0 0,1 9,12A2,2 0 0,1 7,14M12.65,10C11.83,7.67 9.61,6 7, 6A6, 6 0 0, 0 1, 12A6, 6 0 0, 0 7, 18C9.61, 18 11.83, 16.33 12.65, 14H17V18H21V14H23V10H12.65Z" class="i pk" transform="translate(76.37625, 73) scale(0.65)"></path></svg><svg width="138.72" height="100" x="496.44" y="-36.51" id="h1676682957" class="t"><rect height="40" width="138.72" class="th"></rect><text x="13" y="25" class="tht">dept_manager</text><rect height="60" width="138.72" class="t-bg" y="40"></rect><text x="13" y="61" class="tf pk">dept_no<tspan x="125.72" class="ty">string</tspan></text><path d="M7,14A2,2 0 0,1 5,12A2,2 0 0,1 7,10A2,2 0 0,1 9,12A2,2 0 0,1 7,14M12.65,10C11.83,7.67 9.61,6 7, 6A6, 6 0 0, 0 1, 12A6, 6 0 0, 0 7, 18C9.61, 18 11.83, 16.33 12.65, 14H17V18H21V14H23V10H12.65Z" class="i pk" transform="translate(76.37625, 48) scale(0.65)"></path><text x="13" y="86" class="tf pk">emp_no<tspan x="125.72" class="ty">int</tspan></text><path d="M7,14A2,2 0 0,1 5,12A2,2 0 0,1 7,10A2,2 0 0,1 9,12A2,2 0 0,1 7,14M12.65,10C11.83,7.67 9.61,6 7, 6A6, 6 0 0, 0 1, 12A6, 6 0 0, 0 7, 18C9.61, 18 11.83, 16.33 12.65, 14H17V18H21V14H23V10H12.65Z" class="i pk" transform="translate(93.046171875, 73) scale(0.65)"></path></svg></g></g><text class="qdbd-link" x="10" y="20">www.quickdatabasediagrams.com</text></svg>